<svg xmlns="http://www.w3.org/2000/svg" xmlns:xlink="http://www.w3.org/1999/xlink" width="487" zoomAndPan="magnify" viewBox="0 0 365.25 171.000002" height="228" preserveAspectRatio="xMidYMid meet" version="1.0"><defs><g/><clipPath id="a596c0712c"><path d="M 0.6875 25 L 65 25 L 65 160 L 0.6875 160 Z M 0.6875 25 " clip-rule="nonzero"/></clipPath><clipPath id="a2fed0de34"><path d="M 77 60 L 146.835938 60 L 146.835938 87 L 77 87 Z M 77 60 " clip-rule="nonzero"/></clipPath><clipPath id="d44743520c"><path d="M 77 97 L 146.835938 97 L 146.835938 125 L 77 125 Z M 77 97 " clip-rule="nonzero"/></clipPath></defs><g clip-path="url(#a596c0712c)"><path fill="#ffffff" d="M 48.019531 88.308594 L 64.265625 97.707031 L 64.265625 33.289062 L 49.933594 25.007812 L 34.972656 33.625 L 34.972656 50.988281 L 30.929688 53.328125 L 30.929688 35.964844 L 17.738281 43.59375 L 17.738281 61.945312 L 32.992188 70.734375 L 47.976562 62.074219 L 47.976562 45.847656 L 52.023438 43.507812 L 52.023438 64.410156 L 34.972656 74.253906 L 34.972656 91.511719 L 30.929688 93.851562 L 30.929688 74.230469 L 16.03125 65.613281 L 0.6875 74.464844 L 0.6875 89.339844 L 17.738281 79.5 L 17.738281 84.175781 L 0.6875 94.019531 L 0.6875 110.792969 L 16.03125 119.644531 L 28.695312 112.332031 L 16.683594 105.375 L 16.683594 100.71875 L 52.023438 121.117188 L 52.023438 145.183594 L 47.976562 142.84375 L 47.976562 123.457031 L 32.742188 114.667969 L 17.738281 123.332031 L 17.738281 141.117188 L 30.929688 148.722656 L 30.929688 128.808594 L 34.972656 131.148438 L 34.972656 151.0625 L 50.292969 159.914062 L 64.265625 151.839844 L 64.265625 102.382812 L 48.019531 92.984375 Z M 48.019531 88.308594 " fill-opacity="1" fill-rule="evenodd"/></g><path fill="#ffffff" d="M 68.4375 38.300781 L 68.4375 151.398438 L 72.589844 153.824219 L 79.078125 157.550781 C 78.023438 161.21875 79.5625 165.285156 83.019531 167.265625 C 87.109375 169.625 92.3125 168.234375 94.671875 164.148438 C 97.011719 160.082031 95.621094 154.855469 91.554688 152.496094 C 88.097656 150.515625 83.820312 151.210938 81.164062 153.949219 L 72.589844 148.996094 L 72.589844 35.902344 L 81.164062 30.949219 C 83.820312 33.707031 88.097656 34.402344 91.554688 32.402344 C 95.621094 30.042969 97.011719 24.835938 94.671875 20.75 C 92.3125 16.683594 87.109375 15.292969 83.019531 17.628906 C 79.5625 19.632812 78.023438 23.679688 79.078125 27.34375 L 72.589844 31.097656 L 68.4375 33.5 Z M 85.546875 162.882812 C 83.90625 161.914062 83.335938 159.808594 84.304688 158.164062 C 85.253906 156.519531 87.359375 155.949219 89.003906 156.898438 C 90.667969 157.847656 91.214844 159.953125 90.269531 161.621094 C 89.320312 163.261719 87.210938 163.832031 85.546875 162.882812 Z M 84.304688 26.753906 C 83.335938 25.089844 83.90625 22.984375 85.546875 22.035156 C 87.210938 21.085938 89.320312 21.65625 90.269531 23.300781 C 91.214844 24.941406 90.667969 27.050781 89.003906 28 C 87.359375 28.96875 85.253906 28.398438 84.304688 26.753906 Z M 84.304688 26.753906 " fill-opacity="1" fill-rule="evenodd"/><g clip-path="url(#a2fed0de34)"><path fill="#ffffff" d="M 87.359375 69.617188 L 77.078125 69.617188 L 77.078125 73.769531 L 89.089844 73.769531 L 93.261719 69.617188 L 98.359375 64.515625 L 120.675781 64.515625 L 130.179688 74.019531 C 128.21875 77.285156 128.640625 81.605469 131.464844 84.429688 C 134.792969 87.761719 140.210938 87.761719 143.539062 84.429688 C 146.871094 81.101562 146.871094 75.707031 143.539062 72.378906 C 140.714844 69.554688 136.394531 69.109375 133.128906 71.070312 L 126.554688 64.515625 L 122.402344 60.34375 L 96.632812 60.34375 L 92.480469 64.515625 Z M 135.070312 75.960938 C 136.417969 74.609375 138.585938 74.609375 139.9375 75.960938 C 141.285156 77.308594 141.285156 79.5 139.9375 80.828125 C 138.585938 82.175781 136.417969 82.175781 135.070312 80.828125 C 133.71875 79.5 133.71875 77.308594 135.070312 75.960938 Z M 135.070312 75.960938 " fill-opacity="1" fill-rule="evenodd"/></g><path fill="#ffffff" d="M 77.078125 52.675781 L 82.597656 52.675781 L 91.660156 43.613281 L 98.296875 43.613281 C 99.246094 47.320312 102.597656 50.0625 106.578125 50.0625 C 111.277344 50.0625 115.113281 46.246094 115.113281 41.527344 C 115.113281 36.828125 111.277344 33.011719 106.578125 33.011719 C 102.597656 33.011719 99.246094 35.753906 98.296875 39.441406 L 89.929688 39.441406 L 85.757812 43.613281 L 80.871094 48.523438 L 77.078125 48.523438 Z M 103.121094 41.527344 C 103.121094 39.628906 104.683594 38.09375 106.578125 38.09375 C 108.476562 38.09375 110.035156 39.628906 110.035156 41.527344 C 110.035156 43.445312 108.476562 44.984375 106.578125 44.984375 C 104.683594 44.984375 103.121094 43.445312 103.121094 41.527344 Z M 103.121094 41.527344 " fill-opacity="1" fill-rule="evenodd"/><g clip-path="url(#d44743520c)"><path fill="#ffffff" d="M 83.210938 111.128906 L 77.078125 111.128906 L 77.078125 115.300781 L 87.359375 115.300781 L 92.480469 120.402344 L 96.632812 124.550781 L 122.402344 124.550781 L 126.554688 120.402344 L 133.128906 113.828125 C 136.394531 115.785156 140.714844 115.363281 143.539062 112.542969 C 146.871094 109.210938 146.871094 103.816406 143.539062 100.488281 C 140.210938 97.160156 134.792969 97.160156 131.464844 100.488281 C 128.640625 103.3125 128.21875 107.609375 130.179688 110.875 L 120.675781 120.402344 L 98.359375 120.402344 L 93.261719 115.300781 L 89.089844 111.128906 Z M 139.9375 108.957031 C 138.585938 110.308594 136.417969 110.308594 135.070312 108.957031 C 133.71875 107.609375 133.71875 105.417969 135.070312 104.070312 C 136.417969 102.722656 138.585938 102.722656 139.9375 104.070312 C 141.285156 105.417969 141.285156 107.609375 139.9375 108.957031 Z M 139.9375 108.957031 " fill-opacity="1" fill-rule="evenodd"/></g><path fill="#ffffff" d="M 77.078125 94.546875 L 105.777344 94.546875 C 106.703125 98.234375 110.054688 100.972656 114.039062 100.972656 C 118.757812 100.972656 122.574219 97.160156 122.574219 92.460938 C 122.574219 87.738281 118.757812 83.925781 114.039062 83.925781 C 110.054688 83.925781 106.703125 86.664062 105.777344 90.371094 L 77.078125 90.371094 Z M 110.601562 92.460938 C 110.601562 90.542969 112.140625 89.003906 114.039062 89.003906 C 115.957031 89.003906 117.492188 90.542969 117.492188 92.460938 C 117.492188 94.355469 115.957031 95.894531 114.039062 95.894531 C 112.140625 95.894531 110.601562 94.355469 110.601562 92.460938 Z M 110.601562 92.460938 " fill-opacity="1" fill-rule="evenodd"/><path fill="#ffffff" d="M 86.75 136.394531 L 82.597656 132.222656 L 77.078125 132.222656 L 77.078125 136.394531 L 80.871094 136.394531 L 85.757812 141.285156 L 89.929688 145.457031 L 98.296875 145.457031 C 99.246094 149.164062 102.597656 151.90625 106.578125 151.90625 C 111.277344 151.90625 115.113281 148.089844 115.113281 143.371094 C 115.113281 138.671875 111.277344 134.855469 106.578125 134.855469 C 102.597656 134.855469 99.246094 137.597656 98.296875 141.285156 L 91.660156 141.285156 Z M 106.578125 146.828125 C 104.683594 146.828125 103.121094 145.289062 103.121094 143.371094 C 103.121094 141.472656 104.683594 139.9375 106.578125 139.9375 C 108.476562 139.9375 110.035156 141.472656 110.035156 143.371094 C 110.035156 145.289062 108.476562 146.828125 106.578125 146.828125 Z M 106.578125 146.828125 " fill-opacity="1" fill-rule="evenodd"/><g fill="#ffffff" fill-opacity="1"><g transform="translate(165.639868, 84.970738)"><g><path d="M 14.46875 -20.1875 L 14.46875 0 L 3.8125 0 L 3.8125 -49.296875 L 22.78125 -49.296875 C 29.082031 -49.296875 32.234375 -45.941406 32.234375 -39.234375 L 32.234375 -33.515625 C 32.234375 -29.453125 30.785156 -26.863281 27.890625 -25.75 C 30.421875 -24.832031 31.6875 -22.75 31.6875 -19.5 L 31.6875 0 L 21.03125 0 L 21.03125 -18.671875 C 21.03125 -19.679688 20.546875 -20.1875 19.578125 -20.1875 Z M 14.46875 -42.0625 L 14.46875 -27.65625 L 20.109375 -27.65625 C 20.515625 -27.65625 20.859375 -27.804688 21.140625 -28.109375 C 21.421875 -28.421875 21.5625 -28.78125 21.5625 -29.1875 L 21.5625 -40.53125 C 21.5625 -40.9375 21.421875 -41.289062 21.140625 -41.59375 C 20.859375 -41.90625 20.515625 -42.0625 20.109375 -42.0625 Z M 14.46875 -42.0625 "/></g></g></g><g fill="#ffffff" fill-opacity="1"><g transform="translate(200.91291, 84.970738)"><g><path d="M 21.40625 -49.296875 L 32.078125 -49.296875 L 32.078125 -9.296875 C 32.078125 -2.585938 28.925781 0.765625 22.625 0.765625 L 13.1875 0.765625 C 6.882812 0.765625 3.734375 -2.585938 3.734375 -9.296875 L 3.734375 -49.296875 L 14.40625 -49.296875 L 14.40625 -8.375 C 14.40625 -7.96875 14.539062 -7.613281 14.8125 -7.3125 C 15.09375 -7.007812 15.4375 -6.859375 15.84375 -6.859375 L 19.96875 -6.859375 C 20.375 -6.859375 20.710938 -7.007812 20.984375 -7.3125 C 21.265625 -7.613281 21.40625 -7.96875 21.40625 -8.375 Z M 21.40625 -49.296875 "/></g></g></g><g fill="#ffffff" fill-opacity="1"><g transform="translate(236.490675, 84.970738)"><g><path d="M 32.078125 0 L 21.40625 0 L 21.40625 -40.90625 C 21.40625 -41.3125 21.265625 -41.664062 20.984375 -41.96875 C 20.710938 -42.28125 20.375 -42.4375 19.96875 -42.4375 L 15.84375 -42.4375 C 15.4375 -42.4375 15.09375 -42.28125 14.8125 -41.96875 C 14.539062 -41.664062 14.40625 -41.3125 14.40625 -40.90625 L 14.40625 0 L 3.734375 0 L 3.734375 -40 C 3.734375 -46.707031 6.882812 -50.0625 13.1875 -50.0625 L 22.625 -50.0625 C 28.925781 -50.0625 32.078125 -46.707031 32.078125 -40 Z M 32.078125 0 "/></g></g></g><g fill="#ffffff" fill-opacity="1"><g transform="translate(271.916078, 84.970738)"><g><path d="M 23.390625 -50.0625 C 29.691406 -50.0625 32.84375 -46.707031 32.84375 -40 L 32.84375 0 L 22.171875 0 L 22.171875 -16.53125 L 14.46875 -16.53125 L 14.46875 0 L 3.8125 0 L 3.8125 -40 C 3.8125 -46.707031 6.957031 -50.0625 13.25 -50.0625 Z M 14.46875 -24.765625 L 22.171875 -24.765625 L 22.171875 -41.296875 C 22.171875 -41.703125 22.03125 -42.054688 21.75 -42.359375 C 21.46875 -42.660156 21.125 -42.8125 20.71875 -42.8125 L 15.921875 -42.8125 C 15.515625 -42.8125 15.171875 -42.660156 14.890625 -42.359375 C 14.609375 -42.054688 14.46875 -41.703125 14.46875 -41.296875 Z M 14.46875 -24.765625 "/></g></g></g><g fill="#ffffff" fill-opacity="1"><g transform="translate(308.865151, 84.970738)"><g><path d="M 0.984375 -40.234375 L 0.984375 -49.296875 L 27.65625 -49.296875 L 27.65625 -40.234375 L 19.65625 -40.234375 L 19.65625 0 L 8.984375 0 L 8.984375 -40.234375 Z M 0.984375 -40.234375 "/></g></g></g><g fill="#ffffff" fill-opacity="1"><g transform="translate(191.231828, 121.360283)"><g><path d="M 5.46875 -4.59375 L 0.6875 -4.59375 L 0.6875 -6.5 L 5.46875 -6.5 Z M 5.46875 -4.59375 "/></g></g></g><g fill="#ffffff" fill-opacity="1"><g transform="translate(197.39447, 121.360283)"><g><path d="M 8.734375 -11.421875 L 8.734375 -9.53125 L 3.75 -9.53125 L 3.75 -6.515625 L 8.265625 -6.515625 L 8.265625 -4.640625 L 3.75 -4.640625 L 3.75 0 L 1.484375 0 L 1.484375 -11.421875 Z M 8.734375 -11.421875 "/></g></g></g><g fill="#ffffff" fill-opacity="1"><g transform="translate(206.626708, 121.360283)"><g><path d="M 10.96875 0 L 8.59375 0 L 7.734375 -2.640625 L 3.359375 -2.640625 L 2.5 0 L 0.171875 0 L 4.125 -11.421875 L 7.015625 -11.421875 Z M 5.4375 -9.046875 L 3.96875 -4.53125 L 7.109375 -4.53125 L 5.625 -9.046875 Z M 5.4375 -9.046875 "/></g></g></g><g fill="#ffffff" fill-opacity="1"><g transform="translate(217.75695, 121.360283)"><g><path d="M 6.25 0.171875 C 5.195312 0.171875 4.269531 -0.046875 3.46875 -0.484375 C 2.664062 -0.929688 2.035156 -1.59375 1.578125 -2.46875 C 1.128906 -3.34375 0.90625 -4.425781 0.90625 -5.71875 C 0.90625 -7 1.128906 -8.078125 1.578125 -8.953125 C 2.035156 -9.835938 2.664062 -10.5 3.46875 -10.9375 C 4.269531 -11.375 5.195312 -11.59375 6.25 -11.59375 C 7.34375 -11.59375 8.273438 -11.375 9.046875 -10.9375 C 9.816406 -10.507812 10.363281 -9.859375 10.6875 -8.984375 L 9.046875 -7.96875 L 8.84375 -7.984375 C 8.601562 -8.578125 8.269531 -9 7.84375 -9.25 C 7.425781 -9.507812 6.894531 -9.640625 6.25 -9.640625 C 5.300781 -9.640625 4.5625 -9.328125 4.03125 -8.703125 C 3.5 -8.078125 3.234375 -7.082031 3.234375 -5.71875 C 3.234375 -4.351562 3.5 -3.359375 4.03125 -2.734375 C 4.5625 -2.109375 5.300781 -1.796875 6.25 -1.796875 C 7.726562 -1.796875 8.632812 -2.515625 8.96875 -3.953125 L 9.171875 -3.953125 L 10.828125 -3.09375 C 10.515625 -2.007812 9.976562 -1.191406 9.21875 -0.640625 C 8.46875 -0.0976562 7.476562 0.171875 6.25 0.171875 Z M 6.25 0.171875 "/></g></g></g><g fill="#ffffff" fill-opacity="1"><g transform="translate(228.957483, 121.360283)"><g><path d="M 9.15625 -11.421875 L 9.15625 -9.53125 L 5.859375 -9.53125 L 5.859375 0 L 3.609375 0 L 3.609375 -9.53125 L 0.3125 -9.53125 L 0.3125 -11.421875 Z M 9.15625 -11.421875 "/></g></g></g><g fill="#ffffff" fill-opacity="1"><g transform="translate(238.424042, 121.360283)"><g><path d="M 6.0625 0.171875 C 4.488281 0.171875 3.320312 -0.203125 2.5625 -0.953125 C 1.800781 -1.703125 1.421875 -2.8125 1.421875 -4.28125 L 1.421875 -11.421875 L 3.625 -11.421875 L 3.625 -4.296875 C 3.625 -3.460938 3.820312 -2.835938 4.21875 -2.421875 C 4.625 -2.003906 5.238281 -1.796875 6.0625 -1.796875 C 7.675781 -1.796875 8.484375 -2.628906 8.484375 -4.296875 L 8.484375 -11.421875 L 10.703125 -11.421875 L 10.703125 -4.28125 C 10.703125 -2.8125 10.320312 -1.703125 9.5625 -0.953125 C 8.800781 -0.203125 7.632812 0.171875 6.0625 0.171875 Z M 6.0625 0.171875 "/></g></g></g><g fill="#ffffff" fill-opacity="1"><g transform="translate(250.530615, 121.360283)"><g><path d="M 1.484375 0 L 1.484375 -11.421875 L 6.078125 -11.421875 C 7.253906 -11.421875 8.144531 -11.148438 8.75 -10.609375 C 9.351562 -10.066406 9.65625 -9.316406 9.65625 -8.359375 C 9.65625 -7.660156 9.476562 -7.085938 9.125 -6.640625 C 8.769531 -6.203125 8.242188 -5.867188 7.546875 -5.640625 L 7.546875 -5.46875 C 7.910156 -5.3125 8.203125 -5.078125 8.421875 -4.765625 C 8.640625 -4.460938 8.847656 -4.007812 9.046875 -3.40625 L 10.1875 0 L 7.875 0 L 6.75 -3.421875 C 6.632812 -3.765625 6.503906 -4.03125 6.359375 -4.21875 C 6.222656 -4.40625 6.039062 -4.539062 5.8125 -4.625 C 5.59375 -4.71875 5.304688 -4.765625 4.953125 -4.765625 L 3.75 -4.765625 L 3.75 0 Z M 5.796875 -6.546875 C 6.890625 -6.546875 7.4375 -7.054688 7.4375 -8.078125 C 7.4375 -9.117188 6.890625 -9.640625 5.796875 -9.640625 L 3.75 -9.640625 L 3.75 -6.546875 Z M 5.796875 -6.546875 "/></g></g></g><g fill="#ffffff" fill-opacity="1"><g transform="translate(261.207837, 121.360283)"><g><path d="M 10.96875 0 L 8.59375 0 L 7.734375 -2.640625 L 3.359375 -2.640625 L 2.5 0 L 0.171875 0 L 4.125 -11.421875 L 7.015625 -11.421875 Z M 5.4375 -9.046875 L 3.96875 -4.53125 L 7.109375 -4.53125 L 5.625 -9.046875 Z M 5.4375 -9.046875 "/></g></g></g><g fill="#ffffff" fill-opacity="1"><g transform="translate(272.338079, 121.360283)"><g><path d="M 9.15625 -11.421875 L 9.15625 -9.53125 L 5.859375 -9.53125 L 5.859375 0 L 3.609375 0 L 3.609375 -9.53125 L 0.3125 -9.53125 L 0.3125 -11.421875 Z M 9.15625 -11.421875 "/></g></g></g><g fill="#ffffff" fill-opacity="1"><g transform="translate(281.804638, 121.360283)"><g><path d="M 3.75 0 L 1.484375 0 L 1.484375 -11.421875 L 3.75 -11.421875 Z M 3.75 0 "/></g></g></g><g fill="#ffffff" fill-opacity="1"><g transform="translate(287.037801, 121.360283)"><g><path d="M 6.234375 0.171875 C 5.179688 0.171875 4.253906 -0.0390625 3.453125 -0.46875 C 2.660156 -0.90625 2.035156 -1.5625 1.578125 -2.4375 C 1.128906 -3.3125 0.90625 -4.40625 0.90625 -5.71875 C 0.90625 -7.019531 1.128906 -8.109375 1.578125 -8.984375 C 2.035156 -9.867188 2.660156 -10.523438 3.453125 -10.953125 C 4.253906 -11.378906 5.179688 -11.59375 6.234375 -11.59375 C 7.273438 -11.59375 8.191406 -11.378906 8.984375 -10.953125 C 9.785156 -10.523438 10.410156 -9.867188 10.859375 -8.984375 C 11.316406 -8.109375 11.546875 -7.019531 11.546875 -5.71875 C 11.546875 -4.40625 11.316406 -3.304688 10.859375 -2.421875 C 10.410156 -1.546875 9.785156 -0.894531 8.984375 -0.46875 C 8.191406 -0.0390625 7.273438 0.171875 6.234375 0.171875 Z M 6.234375 -1.796875 C 7.203125 -1.796875 7.941406 -2.109375 8.453125 -2.734375 C 8.960938 -3.359375 9.21875 -4.351562 9.21875 -5.71875 C 9.21875 -7.082031 8.960938 -8.078125 8.453125 -8.703125 C 7.941406 -9.328125 7.203125 -9.640625 6.234375 -9.640625 C 5.253906 -9.640625 4.507812 -9.328125 4 -8.703125 C 3.488281 -8.078125 3.234375 -7.082031 3.234375 -5.71875 C 3.234375 -4.351562 3.488281 -3.359375 4 -2.734375 C 4.507812 -2.109375 5.253906 -1.796875 6.234375 -1.796875 Z M 6.234375 -1.796875 "/></g></g></g><g fill="#ffffff" fill-opacity="1"><g transform="translate(299.48024, 121.360283)"><g><path d="M 3.671875 0 L 1.484375 0 L 1.484375 -11.421875 L 4.078125 -11.421875 L 8.65625 -4.0625 L 8.859375 -4.09375 L 8.859375 -11.421875 L 11.03125 -11.421875 L 11.03125 0 L 8.71875 0 L 3.875 -7.859375 L 3.671875 -7.828125 Z M 3.671875 0 "/></g></g></g><g fill="#ffffff" fill-opacity="1"><g transform="translate(216.583571, 143.729468)"><g><path d="M 5.0625 0.171875 C 4.269531 0.171875 3.566406 0.0703125 2.953125 -0.125 C 2.335938 -0.320312 1.820312 -0.578125 1.40625 -0.890625 C 1 -1.210938 0.6875 -1.566406 0.46875 -1.953125 L 1.703125 -3.46875 L 1.90625 -3.46875 C 2.25 -2.957031 2.679688 -2.550781 3.203125 -2.25 C 3.734375 -1.945312 4.351562 -1.796875 5.0625 -1.796875 C 5.664062 -1.796875 6.117188 -1.921875 6.421875 -2.171875 C 6.734375 -2.429688 6.890625 -2.785156 6.890625 -3.234375 C 6.890625 -3.503906 6.835938 -3.726562 6.734375 -3.90625 C 6.640625 -4.09375 6.476562 -4.25 6.25 -4.375 C 6.019531 -4.507812 5.710938 -4.625 5.328125 -4.71875 L 3.859375 -5.046875 C 2.828125 -5.285156 2.0625 -5.675781 1.5625 -6.21875 C 1.0625 -6.757812 0.8125 -7.46875 0.8125 -8.34375 C 0.8125 -8.988281 0.972656 -9.554688 1.296875 -10.046875 C 1.617188 -10.535156 2.085938 -10.914062 2.703125 -11.1875 C 3.316406 -11.457031 4.054688 -11.59375 4.921875 -11.59375 C 5.796875 -11.59375 6.546875 -11.472656 7.171875 -11.234375 C 7.804688 -11.003906 8.335938 -10.648438 8.765625 -10.171875 L 7.65625 -8.640625 L 7.453125 -8.640625 C 7.128906 -8.984375 6.757812 -9.238281 6.34375 -9.40625 C 5.925781 -9.570312 5.453125 -9.65625 4.921875 -9.65625 C 4.296875 -9.65625 3.820312 -9.546875 3.5 -9.328125 C 3.175781 -9.109375 3.015625 -8.804688 3.015625 -8.421875 C 3.015625 -8.066406 3.128906 -7.78125 3.359375 -7.5625 C 3.585938 -7.351562 3.976562 -7.1875 4.53125 -7.0625 L 6.03125 -6.75 C 7.144531 -6.519531 7.953125 -6.125 8.453125 -5.5625 C 8.953125 -5 9.203125 -4.269531 9.203125 -3.375 C 9.203125 -2.65625 9.046875 -2.03125 8.734375 -1.5 C 8.429688 -0.976562 7.96875 -0.566406 7.34375 -0.265625 C 6.726562 0.0234375 5.96875 0.171875 5.0625 0.171875 Z M 5.0625 0.171875 "/></g></g></g><g fill="#ffffff" fill-opacity="1"><g transform="translate(226.393801, 143.729468)"><g><path d="M 6.265625 0 L 4 0 L 4 -4.484375 L 0.0625 -11.421875 L 2.484375 -11.421875 L 5.09375 -6.9375 L 5.28125 -6.9375 L 7.84375 -11.421875 L 10.203125 -11.421875 L 6.265625 -4.484375 Z M 6.265625 0 "/></g></g></g><g fill="#ffffff" fill-opacity="1"><g transform="translate(236.649245, 143.729468)"><g><path d="M 5.0625 0.171875 C 4.269531 0.171875 3.566406 0.0703125 2.953125 -0.125 C 2.335938 -0.320312 1.820312 -0.578125 1.40625 -0.890625 C 1 -1.210938 0.6875 -1.566406 0.46875 -1.953125 L 1.703125 -3.46875 L 1.90625 -3.46875 C 2.25 -2.957031 2.679688 -2.550781 3.203125 -2.25 C 3.734375 -1.945312 4.351562 -1.796875 5.0625 -1.796875 C 5.664062 -1.796875 6.117188 -1.921875 6.421875 -2.171875 C 6.734375 -2.429688 6.890625 -2.785156 6.890625 -3.234375 C 6.890625 -3.503906 6.835938 -3.726562 6.734375 -3.90625 C 6.640625 -4.09375 6.476562 -4.25 6.25 -4.375 C 6.019531 -4.507812 5.710938 -4.625 5.328125 -4.71875 L 3.859375 -5.046875 C 2.828125 -5.285156 2.0625 -5.675781 1.5625 -6.21875 C 1.0625 -6.757812 0.8125 -7.46875 0.8125 -8.34375 C 0.8125 -8.988281 0.972656 -9.554688 1.296875 -10.046875 C 1.617188 -10.535156 2.085938 -10.914062 2.703125 -11.1875 C 3.316406 -11.457031 4.054688 -11.59375 4.921875 -11.59375 C 5.796875 -11.59375 6.546875 -11.472656 7.171875 -11.234375 C 7.804688 -11.003906 8.335938 -10.648438 8.765625 -10.171875 L 7.65625 -8.640625 L 7.453125 -8.640625 C 7.128906 -8.984375 6.757812 -9.238281 6.34375 -9.40625 C 5.925781 -9.570312 5.453125 -9.65625 4.921875 -9.65625 C 4.296875 -9.65625 3.820312 -9.546875 3.5 -9.328125 C 3.175781 -9.109375 3.015625 -8.804688 3.015625 -8.421875 C 3.015625 -8.066406 3.128906 -7.78125 3.359375 -7.5625 C 3.585938 -7.351562 3.976562 -7.1875 4.53125 -7.0625 L 6.03125 -6.75 C 7.144531 -6.519531 7.953125 -6.125 8.453125 -5.5625 C 8.953125 -5 9.203125 -4.269531 9.203125 -3.375 C 9.203125 -2.65625 9.046875 -2.03125 8.734375 -1.5 C 8.429688 -0.976562 7.96875 -0.566406 7.34375 -0.265625 C 6.726562 0.0234375 5.96875 0.171875 5.0625 0.171875 Z M 5.0625 0.171875 "/></g></g></g><g fill="#ffffff" fill-opacity="1"><g transform="translate(246.459475, 143.729468)"><g><path d="M 9.15625 -11.421875 L 9.15625 -9.53125 L 5.859375 -9.53125 L 5.859375 0 L 3.609375 0 L 3.609375 -9.53125 L 0.3125 -9.53125 L 0.3125 -11.421875 Z M 9.15625 -11.421875 "/></g></g></g><g fill="#ffffff" fill-opacity="1"><g transform="translate(255.926034, 143.729468)"><g><path d="M 3.75 -5.015625 L 3.75 -1.890625 L 9.203125 -1.890625 L 9.203125 0 L 1.484375 0 L 1.484375 -11.421875 L 9.078125 -11.421875 L 9.078125 -9.53125 L 3.75 -9.53125 L 3.75 -6.859375 L 8.40625 -6.859375 L 8.40625 -5.015625 Z M 3.75 -5.015625 "/></g></g></g><g fill="#ffffff" fill-opacity="1"><g transform="translate(265.744079, 143.729468)"><g><path d="M 3.5625 0 L 1.484375 0 L 1.484375 -11.421875 L 4.4375 -11.421875 L 7.328125 -3.03125 L 7.5 -3.03125 L 10.375 -11.421875 L 13.25 -11.421875 L 13.25 0 L 11.109375 0 L 11.109375 -7.546875 L 10.921875 -7.578125 L 8.28125 0 L 6.390625 0 L 3.75 -7.578125 L 3.5625 -7.546875 Z M 3.5625 0 "/></g></g></g><g fill="#ffffff" fill-opacity="1"><g transform="translate(280.490667, 143.729468)"><g><path d="M 5.46875 -4.59375 L 0.6875 -4.59375 L 0.6875 -6.5 L 5.46875 -6.5 Z M 5.46875 -4.59375 "/></g></g></g></svg>